<svg width="192" height="192" viewBox="0 0 192 192" fill="none" xmlns="http://www.w3.org/2000/svg">
<rect width="192" height="192" rx="32" fill="url(#paint0_linear_6_129)"/>
<path d="M59.4844 84H52.1953L52.2422 79.3359H59.4844C61.5938 79.3359 63.3594 78.875 64.7812 77.9531C66.2188 77.0312 67.2969 75.7109 68.0156 73.9922C68.75 72.2734 69.1172 70.2266 69.1172 67.8516V66C69.1172 64.1562 68.9062 62.5234 68.4844 61.1016C68.0781 59.6797 67.4688 58.4844 66.6562 57.5156C65.8594 56.5469 64.875 55.8125 63.7031 55.3125C62.5469 54.8125 61.2109 54.5625 59.6953 54.5625H52.0547V49.875H59.6953C61.9609 49.875 64.0312 50.2578 65.9062 51.0234C67.7812 51.7734 69.3984 52.8594 70.7578 54.2812C72.1328 55.7031 73.1875 57.4062 73.9219 59.3906C74.6562 61.375 75.0234 63.5938 75.0234 66.0469V67.8516C75.0234 70.3047 74.6562 72.5234 73.9219 74.5078C73.1875 76.4922 72.1328 78.1953 70.7578 79.6172C69.3828 81.0234 67.7422 82.1094 65.8359 82.875C63.9453 83.625 61.8281 84 59.4844 84ZM55.4531 49.875V84H49.5703V49.875H55.4531ZM93.7031 54.4219L83.5078 84H77.3438L90.1875 49.875H94.125L93.7031 54.4219ZM102.234 84L92.0156 54.4219L91.5703 49.875H95.5312L108.422 84H102.234ZM101.742 71.3438V76.0078H83.1797V71.3438H101.742ZM123.328 49.875V84H117.492V49.875H123.328ZM134.039 49.875V54.5625H106.875V49.875H134.039ZM23.6719 105.875H35.7422C38.3359 105.875 40.5469 106.266 42.375 107.047C44.2031 107.828 45.6016 108.984 46.5703 110.516C47.5547 112.031 48.0469 113.906 48.0469 116.141C48.0469 117.844 47.7344 119.344 47.1094 120.641C46.4844 121.938 45.6016 123.031 44.4609 123.922C43.3203 124.797 41.9609 125.477 40.3828 125.961L38.6016 126.828H27.75L27.7031 122.164H35.8359C37.2422 122.164 38.4141 121.914 39.3516 121.414C40.2891 120.914 40.9922 120.234 41.4609 119.375C41.9453 118.5 42.1875 117.516 42.1875 116.422C42.1875 115.234 41.9531 114.203 41.4844 113.328C41.0312 112.438 40.3281 111.758 39.375 111.289C38.4219 110.805 37.2109 110.562 35.7422 110.562H29.5547V140H23.6719V105.875ZM43.1484 140L35.1328 124.672L41.2969 124.648L49.4297 139.695V140H43.1484ZM64.5234 140.469C62.6484 140.469 60.9531 140.164 59.4375 139.555C57.9375 138.93 56.6562 138.062 55.5938 136.953C54.5469 135.844 53.7422 134.539 53.1797 133.039C52.6172 131.539 52.3359 129.922 52.3359 128.188V127.25C52.3359 125.266 52.625 123.469 53.2031 121.859C53.7812 120.25 54.5859 118.875 55.6172 117.734C56.6484 116.578 57.8672 115.695 59.2734 115.086C60.6797 114.477 62.2031 114.172 63.8438 114.172C65.6562 114.172 67.2422 114.477 68.6016 115.086C69.9609 115.695 71.0859 116.555 71.9766 117.664C72.8828 118.758 73.5547 120.062 73.9922 121.578C74.4453 123.094 74.6719 124.766 74.6719 126.594V129.008H55.0781V124.953H69.0938V124.508C69.0625 123.492 68.8594 122.539 68.4844 121.648C68.125 120.758 67.5703 120.039 66.8203 119.492C66.0703 118.945 65.0703 118.672 63.8203 118.672C62.8828 118.672 62.0469 118.875 61.3125 119.281C60.5938 119.672 59.9922 120.242 59.5078 120.992C59.0234 121.742 58.6484 122.648 58.3828 123.711C58.1328 124.758 58.0078 125.938 58.0078 127.25V128.188C58.0078 129.297 58.1562 130.328 58.4531 131.281C58.7656 132.219 59.2188 133.039 59.8125 133.742C60.4062 134.445 61.125 135 61.9688 135.406C62.8125 135.797 63.7734 135.992 64.8516 135.992C66.2109 135.992 67.4219 135.719 68.4844 135.172C69.5469 134.625 70.4688 133.852 71.25 132.852L74.2266 135.734C73.6797 136.531 72.9688 137.297 72.0938 138.031C71.2188 138.75 70.1484 139.336 68.8828 139.789C67.6328 140.242 66.1797 140.469 64.5234 140.469ZM93.375 134.914V122.82C93.375 121.914 93.2109 121.133 92.8828 120.477C92.5547 119.82 92.0547 119.312 91.3828 118.953C90.7266 118.594 89.8984 118.414 88.8984 118.414C87.9766 118.414 87.1797 118.57 86.5078 118.883C85.8359 119.195 85.3125 119.617 84.9375 120.148C84.5625 120.68 84.375 121.281 84.375 121.953H78.75C78.75 120.953 78.9922 119.984 79.4766 119.047C79.9609 118.109 80.6641 117.273 81.5859 116.539C82.5078 115.805 83.6094 115.227 84.8906 114.805C86.1719 114.383 87.6094 114.172 89.2031 114.172C91.1094 114.172 92.7969 114.492 94.2656 115.133C95.75 115.773 96.9141 116.742 97.7578 118.039C98.6172 119.32 99.0469 120.93 99.0469 122.867V134.141C99.0469 135.297 99.125 136.336 99.2812 137.258C99.4531 138.164 99.6953 138.953 100.008 139.625V140H94.2188C93.9531 139.391 93.7422 138.617 93.5859 137.68C93.4453 136.727 93.375 135.805 93.375 134.914ZM94.1953 124.578L94.2422 128.07H90.1875C89.1406 128.07 88.2188 128.172 87.4219 128.375C86.625 128.562 85.9609 128.844 85.4297 129.219C84.8984 129.594 84.5 130.047 84.2344 130.578C83.9688 131.109 83.8359 131.711 83.8359 132.383C83.8359 133.055 83.9922 133.672 84.3047 134.234C84.6172 134.781 85.0703 135.211 85.6641 135.523C86.2734 135.836 87.0078 135.992 87.8672 135.992C89.0234 135.992 90.0312 135.758 90.8906 135.289C91.7656 134.805 92.4531 134.219 92.9531 133.531C93.4531 132.828 93.7188 132.164 93.75 131.539L95.5781 134.047C95.3906 134.688 95.0703 135.375 94.6172 136.109C94.1641 136.844 93.5703 137.547 92.8359 138.219C92.1172 138.875 91.25 139.414 90.2344 139.836C89.2344 140.258 88.0781 140.469 86.7656 140.469C85.1094 140.469 83.6328 140.141 82.3359 139.484C81.0391 138.812 80.0234 137.914 79.2891 136.789C78.5547 135.648 78.1875 134.359 78.1875 132.922C78.1875 131.578 78.4375 130.391 78.9375 129.359C79.4531 128.312 80.2031 127.438 81.1875 126.734C82.1875 126.031 83.4062 125.5 84.8438 125.141C86.2812 124.766 87.9219 124.578 89.7656 124.578H94.1953ZM120.422 134.75V104H126.094V140H120.961L120.422 134.75ZM103.922 127.602V127.109C103.922 125.188 104.148 123.438 104.602 121.859C105.055 120.266 105.711 118.898 106.57 117.758C107.43 116.602 108.477 115.719 109.711 115.109C110.945 114.484 112.336 114.172 113.883 114.172C115.414 114.172 116.758 114.469 117.914 115.062C119.07 115.656 120.055 116.508 120.867 117.617C121.68 118.711 122.328 120.023 122.812 121.555C123.297 123.07 123.641 124.758 123.844 126.617V128.188C123.641 130 123.297 131.656 122.812 133.156C122.328 134.656 121.68 135.953 120.867 137.047C120.055 138.141 119.062 138.984 117.891 139.578C116.734 140.172 115.383 140.469 113.836 140.469C112.305 140.469 110.922 140.148 109.688 139.508C108.469 138.867 107.43 137.969 106.57 136.812C105.711 135.656 105.055 134.297 104.602 132.734C104.148 131.156 103.922 129.445 103.922 127.602ZM109.57 127.109V127.602C109.57 128.758 109.672 129.836 109.875 130.836C110.094 131.836 110.43 132.719 110.883 133.484C111.336 134.234 111.922 134.828 112.641 135.266C113.375 135.688 114.25 135.898 115.266 135.898C116.547 135.898 117.602 135.617 118.43 135.055C119.258 134.492 119.906 133.734 120.375 132.781C120.859 131.812 121.188 130.734 121.359 129.547V125.305C121.266 124.383 121.07 123.523 120.773 122.727C120.492 121.93 120.109 121.234 119.625 120.641C119.141 120.031 118.539 119.562 117.82 119.234C117.117 118.891 116.281 118.719 115.312 118.719C114.281 118.719 113.406 118.938 112.688 119.375C111.969 119.812 111.375 120.414 110.906 121.18C110.453 121.945 110.117 122.836 109.898 123.852C109.68 124.867 109.57 125.953 109.57 127.109ZM143.18 140.469C141.305 140.469 139.609 140.164 138.094 139.555C136.594 138.93 135.312 138.062 134.25 136.953C133.203 135.844 132.398 134.539 131.836 133.039C131.273 131.539 130.992 129.922 130.992 128.188V127.25C130.992 125.266 131.281 123.469 131.859 121.859C132.438 120.25 133.242 118.875 134.273 117.734C135.305 116.578 136.523 115.695 137.93 115.086C139.336 114.477 140.859 114.172 142.5 114.172C144.312 114.172 145.898 114.477 147.258 115.086C148.617 115.695 149.742 116.555 150.633 117.664C151.539 118.758 152.211 120.062 152.648 121.578C153.102 123.094 153.328 124.766 153.328 126.594V129.008H133.734V124.953H147.75V124.508C147.719 123.492 147.516 122.539 147.141 121.648C146.781 120.758 146.227 120.039 145.477 119.492C144.727 118.945 143.727 118.672 142.477 118.672C141.539 118.672 140.703 118.875 139.969 119.281C139.25 119.672 138.648 120.242 138.164 120.992C137.68 121.742 137.305 122.648 137.039 123.711C136.789 124.758 136.664 125.938 136.664 127.25V128.188C136.664 129.297 136.812 130.328 137.109 131.281C137.422 132.219 137.875 133.039 138.469 133.742C139.062 134.445 139.781 135 140.625 135.406C141.469 135.797 142.43 135.992 143.508 135.992C144.867 135.992 146.078 135.719 147.141 135.172C148.203 134.625 149.125 133.852 149.906 132.852L152.883 135.734C152.336 136.531 151.625 137.297 150.75 138.031C149.875 138.75 148.805 139.336 147.539 139.789C146.289 140.242 144.836 140.469 143.18 140.469ZM163.406 119.469V140H157.758V114.641H163.148L163.406 119.469ZM171.164 114.477L171.117 119.727C170.773 119.664 170.398 119.617 169.992 119.586C169.602 119.555 169.211 119.539 168.82 119.539C167.852 119.539 167 119.68 166.266 119.961C165.531 120.227 164.914 120.617 164.414 121.133C163.93 121.633 163.555 122.242 163.289 122.961C163.023 123.68 162.867 124.484 162.82 125.375L161.531 125.469C161.531 123.875 161.688 122.398 162 121.039C162.312 119.68 162.781 118.484 163.406 117.453C164.047 116.422 164.844 115.617 165.797 115.039C166.766 114.461 167.883 114.172 169.148 114.172C169.492 114.172 169.859 114.203 170.25 114.266C170.656 114.328 170.961 114.398 171.164 114.477Z" fill="white"/>
<defs>
<linearGradient id="paint0_linear_6_129" x1="96" y1="0" x2="96" y2="192" gradientUnits="userSpaceOnUse">
<stop stop-color="#46639B"/>
<stop offset="1" stop-color="#4C8DFF"/>
</linearGradient>
</defs>
</svg>
